<svg width="250" height="59" viewBox="0 0 250 59" fill="none" xmlns="http://www.w3.org/2000/svg">
<path d="M50.0051 6.91732H63.2513C64.3262 6.91732 65.2178 7.11274 65.9262 7.5036C66.6346 7.88223 67.1659 8.37691 67.5201 8.98761C67.8744 9.5861 68.0515 10.2212 68.0515 10.893C68.0515 11.5892 67.856 12.2671 67.4652 12.9267C67.0865 13.574 66.5064 14.1053 65.7247 14.5206C64.9552 14.9359 63.9903 15.1435 62.8299 15.1435C62.7811 15.1435 62.6589 15.1435 62.4635 15.1435C62.2681 15.1435 62.0665 15.1435 61.8589 15.1435C61.6635 15.1435 61.5352 15.1435 61.4742 15.1435C61.4742 15.1435 61.4742 15.1496 61.4742 15.1618C61.4742 15.1741 61.4742 15.1802 61.4742 15.1802C61.4742 15.1802 61.4742 15.1863 61.4742 15.1985C61.4742 15.1985 61.4742 15.2046 61.4742 15.2168H65.6331L68.4545 20.6582H59.752C59.5199 20.0353 59.2817 19.4124 59.0374 18.7894C58.8054 18.1665 58.5672 17.5436 58.3229 16.9207C58.0908 16.2978 57.8527 15.6748 57.6084 15.0519H59.7336C59.9779 15.0519 60.1917 15.0153 60.3749 14.942C60.5703 14.8687 60.7291 14.771 60.8512 14.6489C60.9734 14.5267 61.065 14.3924 61.1261 14.2458C61.1871 14.087 61.2177 13.9282 61.2177 13.7694C61.2177 13.5496 61.1627 13.3419 61.0528 13.1465C60.9428 12.9511 60.7779 12.7923 60.5581 12.6702C60.3382 12.548 60.0634 12.487 59.7336 12.487H57.645C57.645 12.487 57.6389 12.4931 57.6267 12.5053C57.6267 12.5053 57.6206 12.5053 57.6084 12.5053C57.6084 12.5053 57.6084 12.5114 57.6084 12.5236C57.6084 13.3175 57.6084 13.9038 57.6084 14.2824C57.6084 14.6489 57.6084 14.8809 57.6084 14.9786C57.6084 15.0641 57.6084 15.0947 57.6084 15.0702C57.6084 15.0702 57.6084 15.1374 57.6084 15.2718C57.6084 15.3939 57.6084 15.5649 57.6084 15.7848C57.6084 16.0046 57.6084 16.255 57.6084 16.5359C57.6084 16.939 57.6084 17.3848 57.6084 17.8734C57.6084 18.3619 57.6084 18.8505 57.6084 19.3391C57.6084 19.8154 57.6084 20.2551 57.6084 20.6582H50.0051C50.0051 19.8765 50.0051 19.0948 50.0051 18.3131C50.0051 17.5192 50.0051 16.7314 50.0051 15.9497C50.0051 15.168 50.0051 14.3863 50.0051 13.6045C50.0051 12.8106 50.0051 12.0228 50.0051 11.2411C50.0051 10.5205 50.0051 9.79985 50.0051 9.07922C50.0051 8.35858 50.0051 7.63795 50.0051 6.91732ZM76.2453 16.5176C76.8927 16.5176 77.3934 16.4016 77.7477 16.1695C78.1019 15.9374 78.2851 15.6199 78.2973 15.2168L83.9585 17.0673C83.7387 17.8367 83.2684 18.5391 82.5478 19.1742C81.8394 19.7971 80.9416 20.2918 79.8546 20.6582C78.7675 21.0246 77.5522 21.2078 76.2087 21.2078C75.0605 21.2078 73.9857 21.0796 72.9841 20.8231C71.9948 20.5666 71.1215 20.1819 70.3642 19.6689C69.6192 19.1437 69.0329 18.4902 68.6054 17.7085C68.1779 16.9268 67.9641 16.0168 67.9641 14.9786C67.9641 13.9404 68.1779 13.0305 68.6054 12.2488C69.0329 11.4671 69.6192 10.8197 70.3642 10.3067C71.1215 9.78153 72.0009 9.39068 73.0025 9.13418C74.004 8.87768 75.0728 8.74944 76.2087 8.74944C77.369 8.74944 78.4316 8.87768 79.3966 9.13418C80.3737 9.39068 81.2104 9.78764 81.9066 10.3251C82.615 10.8503 83.1585 11.522 83.5371 12.3404C83.928 13.1465 84.1234 14.1053 84.1234 15.2168H74.1384C74.1384 15.2168 74.1323 15.2168 74.1201 15.2168C74.1201 15.2168 74.1201 15.2229 74.1201 15.2351C74.1201 15.4183 74.1689 15.5893 74.2666 15.7481C74.3643 15.9069 74.4987 16.0474 74.6697 16.1695C74.8529 16.2794 75.0728 16.3649 75.3293 16.426C75.598 16.4871 75.9033 16.5176 76.2453 16.5176ZM76.2087 13.3847C75.6102 13.3847 75.1155 13.4946 74.7247 13.7145C74.3338 13.9221 74.1384 14.2214 74.1384 14.6122C74.1384 14.6244 74.1384 14.6366 74.1384 14.6489C74.1506 14.6489 74.1567 14.6489 74.1567 14.6489H78.2423C78.2545 14.6489 78.2606 14.6489 78.2606 14.6489C78.2606 14.6366 78.2606 14.6244 78.2606 14.6122C78.2606 14.4168 78.2057 14.2458 78.0958 14.0992C77.998 13.9404 77.8576 13.8122 77.6744 13.7145C77.4912 13.6045 77.2713 13.5252 77.0148 13.4763C76.7705 13.4152 76.5018 13.3847 76.2087 13.3847ZM85.5413 9.95863C86.4329 9.55557 87.3979 9.25632 88.4361 9.0609C89.4865 8.85326 90.5369 8.74944 91.5873 8.74944C92.6133 8.74944 93.6026 8.84715 94.5553 9.04258C95.508 9.238 96.3569 9.53725 97.102 9.94031C97.8593 10.3434 98.4577 10.8442 98.8975 11.4426C99.3372 12.0411 99.557 12.7435 99.557 13.5496C99.557 14.7344 99.557 15.9191 99.557 17.1039C99.557 18.2887 99.557 19.4734 99.557 20.6582C99.1295 20.6582 98.702 20.6582 98.2745 20.6582C97.847 20.6582 97.4195 20.6582 96.9921 20.6582C96.5646 20.6582 96.1371 20.6582 95.7096 20.6582C95.2821 20.6582 94.8546 20.6582 94.4271 20.6582C93.9996 20.6582 93.5721 20.6582 93.1446 20.6582C93.1446 20.0109 93.1446 19.3696 93.1446 18.7345C93.1446 18.0871 93.1446 17.4459 93.1446 16.8108C93.1446 16.5909 93.0713 16.4138 92.9247 16.2794C92.7782 16.1451 92.6011 16.0535 92.3934 16.0046C92.1858 15.9436 91.9782 15.913 91.7705 15.913C91.3064 15.913 90.9522 16.0046 90.7079 16.1878C90.4758 16.371 90.3598 16.5787 90.3598 16.8108C90.3598 17.0428 90.4819 17.2566 90.7262 17.452C90.9705 17.6352 91.3186 17.7268 91.7705 17.7268C91.9904 17.7268 92.2408 17.6841 92.5217 17.5986C92.8026 17.5131 93.0164 17.2932 93.1629 16.939C92.9064 17.5375 92.6438 18.136 92.3751 18.7345C92.1186 19.333 91.8621 19.9315 91.6056 20.53C91.1659 20.7498 90.7018 20.9025 90.2132 20.988C89.7369 21.0857 89.2605 21.1346 88.7842 21.1346C88.2101 21.1346 87.6544 21.0552 87.1169 20.8964C86.5917 20.7498 86.1154 20.53 85.6879 20.2368C85.2726 19.9437 84.9428 19.5773 84.6985 19.1375C84.4543 18.6978 84.3321 18.1848 84.3321 17.5986C84.3321 17.2444 84.3932 16.8963 84.5153 16.5543C84.6375 16.2123 84.8207 15.8886 85.065 15.5832C85.3092 15.2779 85.6146 15.0092 85.981 14.7771C86.3597 14.545 86.8055 14.3679 87.3185 14.2458C87.8315 14.1114 88.4177 14.0443 89.0773 14.0443C89.5048 14.0443 89.9201 14.0809 90.3231 14.1542C90.7262 14.2153 91.1048 14.313 91.4591 14.4473C91.8255 14.5817 92.1492 14.7466 92.4301 14.942C92.7232 15.1374 92.9614 15.3573 93.1446 15.6016C93.1446 15.5771 93.1446 15.5588 93.1446 15.5466C93.1446 15.5222 93.1446 15.5038 93.1446 15.4916C93.1446 15.4672 93.1446 15.4489 93.1446 15.4367C93.1446 15.058 93.0469 14.7344 92.8515 14.4656C92.6683 14.1847 92.4118 13.9588 92.082 13.7878C91.7644 13.6045 91.3919 13.4702 90.9644 13.3847C90.5491 13.2992 90.1094 13.2564 89.6453 13.2564C88.9246 13.2564 88.1979 13.3481 87.465 13.5313C86.7322 13.7145 86.0909 13.9832 85.5413 14.3374V9.95863ZM100.263 20.6582C100.263 19.6811 100.263 18.7101 100.263 17.7451C100.263 16.768 100.263 15.797 100.263 14.8321C100.263 13.8549 100.263 12.8839 100.263 11.919C100.263 11.0884 100.263 10.2579 100.263 9.42732C100.263 8.58455 100.263 7.74788 100.263 6.91732H106.602C106.602 7.43031 106.602 7.94331 106.602 8.4563C106.602 8.95708 106.602 9.46396 106.602 9.97696C106.602 11.748 106.602 13.5252 106.602 15.3084C106.602 17.0917 106.602 18.8749 106.602 20.6582H100.263Z" fill="#002626"/>
<path d="M50.6965 6.02279H63.9427C65.0176 6.02279 65.9092 6.21821 66.6176 6.60906C67.326 6.9877 67.8573 7.48237 68.2115 8.09308C68.5658 8.69157 68.7429 9.32671 68.7429 9.99848C68.7429 10.6947 68.5474 11.3726 68.1566 12.0321C67.7779 12.6795 67.1978 13.2108 66.4161 13.6261C65.6466 14.0414 64.6817 14.249 63.5213 14.249C63.4725 14.249 63.3503 14.249 63.1549 14.249C62.9595 14.249 62.7579 14.249 62.5503 14.249C62.3549 14.249 62.2266 14.249 62.1656 14.249C62.1656 14.249 62.1656 14.2551 62.1656 14.2673C62.1656 14.2795 62.1656 14.2856 62.1656 14.2856C62.1656 14.2856 62.1656 14.2917 62.1656 14.304C62.1656 14.304 62.1656 14.3101 62.1656 14.3223H66.3245L69.1459 19.7637H60.4434C60.2113 19.1408 59.9731 18.5178 59.7288 17.8949C59.4968 17.272 59.2586 16.6491 59.0143 16.0262C58.7822 15.4032 58.5441 14.7803 58.2998 14.1574H60.425C60.6693 14.1574 60.8831 14.1207 61.0663 14.0475C61.2617 13.9742 61.4205 13.8765 61.5426 13.7543C61.6648 13.6322 61.7564 13.4978 61.8175 13.3513C61.8785 13.1925 61.9091 13.0337 61.9091 12.8749C61.9091 12.6551 61.8541 12.4474 61.7442 12.252C61.6342 12.0566 61.4694 11.8978 61.2495 11.7756C61.0296 11.6535 60.7548 11.5924 60.425 11.5924H58.3364C58.3364 11.5924 58.3303 11.5985 58.3181 11.6107C58.3181 11.6107 58.312 11.6107 58.2998 11.6107C58.2998 11.6107 58.2998 11.6169 58.2998 11.6291C58.2998 12.423 58.2998 13.0093 58.2998 13.3879C58.2998 13.7543 58.2998 13.9864 58.2998 14.0841C58.2998 14.1696 58.2998 14.2001 58.2998 14.1757C58.2998 14.1757 58.2998 14.2429 58.2998 14.3772C58.2998 14.4994 58.2998 14.6704 58.2998 14.8902C58.2998 15.1101 58.2998 15.3605 58.2998 15.6414C58.2998 16.0445 58.2998 16.4903 58.2998 16.9789C58.2998 17.4674 58.2998 17.956 58.2998 18.4445C58.2998 18.9209 58.2998 19.3606 58.2998 19.7637H50.6965C50.6965 18.982 50.6965 18.2003 50.6965 17.4186C50.6965 16.6246 50.6965 15.8368 50.6965 15.0551C50.6965 14.2734 50.6965 13.4917 50.6965 12.71C50.6965 11.9161 50.6965 11.1283 50.6965 10.3466C50.6965 9.62595 50.6965 8.90532 50.6965 8.18469C50.6965 7.46405 50.6965 6.74342 50.6965 6.02279ZM76.9367 15.6231C77.5841 15.6231 78.0849 15.5071 78.4391 15.275C78.7933 15.0429 78.9765 14.7253 78.9887 14.3223L84.6499 16.1727C84.4301 16.9422 83.9598 17.6445 83.2392 18.2797C82.5308 18.9026 81.6331 19.3972 80.546 19.7637C79.4589 20.1301 78.2436 20.3133 76.9001 20.3133C75.752 20.3133 74.6771 20.1851 73.6756 19.9286C72.6862 19.6721 71.8129 19.2873 71.0556 18.7743C70.3106 18.2491 69.7243 17.5957 69.2968 16.814C68.8693 16.0323 68.6556 15.1223 68.6556 14.0841C68.6556 13.0459 68.8693 12.136 69.2968 11.3543C69.7243 10.5725 70.3106 9.9252 71.0556 9.41221C71.8129 8.887 72.6923 8.49615 73.6939 8.23965C74.6954 7.98315 75.7642 7.85491 76.9001 7.85491C78.0604 7.85491 79.1231 7.98315 80.088 8.23965C81.0651 8.49615 81.9018 8.89311 82.598 9.43053C83.3064 9.95573 83.8499 10.6275 84.2286 11.4459C84.6194 12.252 84.8148 13.2108 84.8148 14.3223H74.8298C74.8298 14.3223 74.8237 14.3223 74.8115 14.3223C74.8115 14.3223 74.8115 14.3284 74.8115 14.3406C74.8115 14.5238 74.8603 14.6948 74.958 14.8536C75.0557 15.0124 75.1901 15.1528 75.3611 15.275C75.5443 15.3849 75.7642 15.4704 76.0207 15.5315C76.2894 15.5926 76.5947 15.6231 76.9367 15.6231ZM76.9001 12.4902C76.3016 12.4902 75.8069 12.6001 75.4161 12.8199C75.0252 13.0276 74.8298 13.3268 74.8298 13.7177C74.8298 13.7299 74.8298 13.7421 74.8298 13.7543C74.842 13.7543 74.8481 13.7543 74.8481 13.7543H78.9337C78.9459 13.7543 78.9521 13.7543 78.9521 13.7543C78.9521 13.7421 78.9521 13.7299 78.9521 13.7177C78.9521 13.5223 78.8971 13.3513 78.7872 13.2047C78.6895 13.0459 78.549 12.9177 78.3658 12.8199C78.1826 12.71 77.9627 12.6306 77.7062 12.5818C77.4619 12.5207 77.1932 12.4902 76.9001 12.4902ZM86.2327 9.0641C87.1244 8.66104 88.0893 8.36179 89.1275 8.16637C90.1779 7.95873 91.2283 7.85491 92.2787 7.85491C93.3047 7.85491 94.294 7.95262 95.2467 8.14804C96.1994 8.34347 97.0483 8.64272 97.7934 9.04578C98.5507 9.44885 99.1492 9.94963 99.5889 10.5481C100.029 11.1466 100.248 11.8489 100.248 12.6551C100.248 13.8398 100.248 15.0246 100.248 16.2094C100.248 17.3941 100.248 18.5789 100.248 19.7637C99.8209 19.7637 99.3934 19.7637 98.9659 19.7637C98.5384 19.7637 98.111 19.7637 97.6835 19.7637C97.256 19.7637 96.8285 19.7637 96.401 19.7637C95.9735 19.7637 95.546 19.7637 95.1185 19.7637C94.691 19.7637 94.2635 19.7637 93.836 19.7637C93.836 19.1163 93.836 18.4751 93.836 17.8399C93.836 17.1926 93.836 16.5514 93.836 15.9162C93.836 15.6964 93.7627 15.5193 93.6162 15.3849C93.4696 15.2506 93.2925 15.1589 93.0848 15.1101C92.8772 15.049 92.6696 15.0185 92.4619 15.0185C91.9978 15.0185 91.6436 15.1101 91.3993 15.2933C91.1672 15.4765 91.0512 15.6842 91.0512 15.9162C91.0512 16.1483 91.1733 16.362 91.4176 16.5575C91.6619 16.7407 92.01 16.8323 92.4619 16.8323C92.6818 16.8323 92.9322 16.7895 93.2131 16.704C93.494 16.6185 93.7078 16.3987 93.8543 16.0445C93.5978 16.643 93.3352 17.2415 93.0665 17.8399C92.81 18.4384 92.5535 19.0369 92.297 19.6354C91.8573 19.8553 91.3932 20.008 90.9046 20.0935C90.4283 20.1912 89.9519 20.24 89.4756 20.24C88.9015 20.24 88.3458 20.1606 87.8083 20.0018C87.2831 19.8553 86.8068 19.6354 86.3793 19.3423C85.964 19.0491 85.6342 18.6827 85.3899 18.243C85.1457 17.8033 85.0235 17.2903 85.0235 16.704C85.0235 16.3498 85.0846 16.0017 85.2067 15.6597C85.3289 15.3177 85.5121 14.9941 85.7564 14.6887C86.0007 14.3834 86.306 14.1146 86.6724 13.8826C87.0511 13.6505 87.4969 13.4734 88.0099 13.3513C88.5229 13.2169 89.1091 13.1497 89.7687 13.1497C90.1962 13.1497 90.6115 13.1864 91.0145 13.2597C91.4176 13.3207 91.7963 13.4184 92.1505 13.5528C92.5169 13.6871 92.8406 13.852 93.1215 14.0475C93.4146 14.2429 93.6528 14.4627 93.836 14.707C93.836 14.6826 93.836 14.6643 93.836 14.6521C93.836 14.6276 93.836 14.6093 93.836 14.5971C93.836 14.5727 93.836 14.5543 93.836 14.5421C93.836 14.1635 93.7383 13.8398 93.5429 13.5711C93.3597 13.2902 93.1032 13.0642 92.7734 12.8932C92.4558 12.71 92.0833 12.5757 91.6558 12.4902C91.2405 12.4047 90.8008 12.3619 90.3367 12.3619C89.616 12.3619 88.8893 12.4535 88.1564 12.6367C87.4236 12.8199 86.7824 13.0887 86.2327 13.4429V9.0641ZM100.955 19.7637C100.955 18.7865 100.955 17.8155 100.955 16.8506C100.955 15.8735 100.955 14.9025 100.955 13.9375C100.955 12.9604 100.955 11.9894 100.955 11.0245C100.955 10.1939 100.955 9.36335 100.955 8.53279C100.955 7.69001 100.955 6.85335 100.955 6.02279H107.294C107.294 6.53578 107.294 7.04877 107.294 7.56177C107.294 8.06255 107.294 8.56943 107.294 9.08242C107.294 10.8535 107.294 12.6306 107.294 14.4139C107.294 16.1971 107.294 17.9804 107.294 19.7637H100.955Z" fill="#D1603D"/>
<path d="M26.8711 58.3316C24.298 58.3316 21.9203 58.1687 19.738 57.843C17.5558 57.5173 15.5364 57.045 13.6798 56.4262C11.8558 55.8073 10.211 55.0582 8.74531 54.1788C7.31219 53.2993 6.04192 52.3059 4.9345 51.1985C3.82709 50.0911 2.89882 48.886 2.14969 47.5831C1.43312 46.2477 0.895702 44.8309 0.537421 43.3326C0.17914 41.8344 0 40.2547 0 38.5935C0 35.8902 0.439708 33.4636 1.31912 31.3139C2.19854 29.1642 3.43624 27.3077 5.03222 25.7443C6.66077 24.1809 8.58245 22.878 10.7973 21.8358C13.0447 20.7935 15.5201 20.0281 18.2235 19.5395C20.9269 19.0184 23.8094 18.7578 26.8711 18.7578C32.2778 18.7578 36.8704 19.4092 40.6486 20.7121C44.4268 22.0149 47.4071 23.8877 49.5893 26.3306C51.8042 28.7734 53.1884 31.7374 53.7421 35.2224L32.9781 38.5935C32.9781 37.8444 32.8153 37.2093 32.4896 36.6881C32.1638 36.1344 31.7241 35.6947 31.1704 35.369C30.6167 35.0433 29.9653 34.799 29.2162 34.6362C28.4996 34.4733 27.7179 34.3919 26.8711 34.3919C25.6985 34.3919 24.6562 34.5547 23.7442 34.8805C22.8323 35.1736 22.0994 35.6296 21.5457 36.2484C21.0246 36.8347 20.764 37.5838 20.764 38.4958C20.764 39.0495 20.8617 39.5544 21.0571 40.0104C21.2526 40.4664 21.5294 40.8735 21.8877 41.2318C22.246 41.5575 22.6694 41.8344 23.158 42.0624C23.6791 42.2578 24.2491 42.4206 24.868 42.5509C25.4868 42.6486 26.1545 42.6975 26.8711 42.6975C28.5973 42.6975 30.0467 42.3555 31.2193 41.6715C32.3918 40.9549 32.9781 39.929 32.9781 38.5935L53.7421 40.6944C53.3838 43.1046 52.5859 45.3683 51.3482 47.4854C50.143 49.6025 48.4493 51.4754 46.2671 53.1039C44.1174 54.7325 41.4303 56.0027 38.2058 56.9147C35.0138 57.8593 31.2356 58.3316 26.8711 58.3316Z" fill="#002626"/>
<path d="M76.8058 58.3316C74.7864 58.3316 72.8322 58.185 70.943 57.8919C69.0539 57.5987 67.2951 57.159 65.6665 56.5727C64.038 55.9539 62.556 55.1885 61.2206 54.2765C59.8852 53.3645 58.7452 52.3059 57.8006 51.1008C56.8561 49.8631 56.1232 48.4788 55.6021 46.948C55.081 45.3846 54.8204 43.6583 54.8204 41.7692C54.8204 39.5544 55.1787 37.5676 55.8952 35.8087C56.6444 34.0173 57.6866 32.4539 59.0221 31.1185C60.39 29.7831 61.986 28.6757 63.81 27.7963C65.634 26.8843 67.6371 26.2166 69.8193 25.7931C72.0342 25.3372 74.363 25.1092 76.8058 25.1092C79.8675 25.1092 82.7175 25.4674 85.3557 26.184C88.0265 26.868 90.3553 27.9103 92.3422 29.3108C94.3616 30.6788 95.9413 32.4051 97.0813 34.4896C98.2212 36.5741 98.7912 39.0007 98.7912 41.7692C98.7912 44.5377 98.2212 46.9643 97.0813 49.0488C95.9413 51.1008 94.3616 52.8271 92.3422 54.2276C90.3553 55.5956 88.0265 56.6216 85.3557 57.3056C82.7175 57.9896 79.8675 58.3316 76.8058 58.3316ZM76.8547 45.3846C78.8741 45.3846 80.3072 44.9937 81.154 44.212C82.0009 43.4303 82.4243 42.5835 82.4243 41.6715C82.4243 41.2481 82.3266 40.8247 82.1312 40.4012C81.9357 39.9778 81.6263 39.587 81.2029 39.2287C80.7795 38.8704 80.2095 38.5935 79.4929 38.3981C78.7764 38.1701 77.8969 38.0561 76.8547 38.0561C75.8124 38.0561 74.9167 38.1701 74.1676 38.3981C73.451 38.5935 72.8647 38.8704 72.4087 39.2287C71.9853 39.587 71.6759 39.9778 71.4805 40.4012C71.285 40.8247 71.1873 41.2644 71.1873 41.7204C71.1873 42.1764 71.285 42.6323 71.4805 43.0883C71.6759 43.5118 72.0016 43.9026 72.4576 44.2609C72.9136 44.5866 73.4999 44.8635 74.2164 45.0915C74.933 45.2869 75.8124 45.3846 76.8547 45.3846Z" fill="#002626"/>
<path d="M121.603 18.7578C123.037 18.7578 124.502 18.8881 126 19.1487C127.531 19.3767 128.948 19.6861 130.251 20.0769C131.554 20.4678 132.58 20.8912 133.329 21.3472L128.932 35.369C128.932 34.1313 128.443 33.2193 127.466 32.6331C126.489 32.0142 125.43 31.7048 124.29 31.7048C123.769 31.7048 123.281 31.7536 122.825 31.8513C122.369 31.9491 121.962 32.0956 121.603 32.2911C121.245 32.4539 120.936 32.6819 120.675 32.975C120.447 33.2682 120.268 33.6102 120.138 34.001C120.007 34.3919 119.942 34.8316 119.942 35.3202C119.942 35.3202 119.942 35.3364 119.942 35.369C119.975 35.369 119.991 35.369 119.991 35.369H128.932L125.414 46.7037H119.991C119.959 46.7037 119.942 46.7037 119.942 46.7037C119.942 46.7037 119.942 46.72 119.942 46.7526C119.942 48.0554 119.942 49.228 119.942 50.2702C119.942 51.2799 119.942 52.3059 119.942 53.3482C119.942 54.3905 119.942 55.563 119.942 56.8659H102.891C102.891 55.563 102.891 54.3905 102.891 53.3482C102.891 52.3059 102.891 51.2799 102.891 50.2702C102.891 49.228 102.891 48.0554 102.891 46.7526C102.891 46.72 102.891 46.7037 102.891 46.7037C102.891 46.7037 102.875 46.7037 102.842 46.7037H99.1294C99.5528 45.4335 99.9763 44.1795 100.4 42.9418C100.823 41.6715 101.23 40.4012 101.621 39.131C102.045 37.8607 102.468 36.6067 102.891 35.369V34.8805C102.891 31.6559 103.657 28.8385 105.188 26.4283C106.718 23.9855 108.884 22.0963 111.686 20.7609C114.487 19.4255 117.793 18.7578 121.603 18.7578Z" fill="#002626"/>
<path d="M150.898 18.7578C152.331 18.7578 153.797 18.8881 155.295 19.1487C156.826 19.3767 158.243 19.6861 159.546 20.0769C160.849 20.4678 161.875 20.8912 162.624 21.3472L158.227 35.369C158.227 34.1313 157.738 33.2193 156.761 32.6331C155.784 32.0142 154.725 31.7048 153.585 31.7048C153.064 31.7048 152.576 31.7536 152.12 31.8513C151.664 31.9491 151.256 32.0956 150.898 32.2911C150.54 32.4539 150.23 32.6819 149.97 32.975C149.742 33.2682 149.563 33.6102 149.432 34.001C149.302 34.3919 149.237 34.8316 149.237 35.3202C149.237 35.3202 149.237 35.3364 149.237 35.369C149.27 35.369 149.286 35.369 149.286 35.369H158.227L154.709 46.7037H149.286C149.253 46.7037 149.237 46.7037 149.237 46.7037C149.237 46.7037 149.237 46.72 149.237 46.7526C149.237 48.0554 149.237 49.228 149.237 50.2702C149.237 51.2799 149.237 52.3059 149.237 53.3482C149.237 54.3905 149.237 55.563 149.237 56.8659H132.186C132.186 55.563 132.186 54.3905 132.186 53.3482C132.186 52.3059 132.186 51.2799 132.186 50.2702C132.186 49.228 132.186 48.0554 132.186 46.7526C132.186 46.72 132.186 46.7037 132.186 46.7037C132.186 46.7037 132.17 46.7037 132.137 46.7037H128.424C128.848 45.4335 129.271 44.1795 129.694 42.9418C130.118 41.6715 130.525 40.4012 130.916 39.131C131.339 37.8607 131.763 36.6067 132.186 35.369V34.8805C132.186 31.6559 132.952 28.8385 134.482 26.4283C136.013 23.9855 138.179 22.0963 140.98 20.7609C143.781 19.4255 147.087 18.7578 150.898 18.7578Z" fill="#002626"/>
<path d="M181.201 45.8243C182.927 45.8243 184.262 45.5149 185.207 44.896C186.151 44.2772 186.64 43.4303 186.673 42.3555L201.769 47.29C201.183 49.342 199.929 51.2148 198.007 52.9085C196.118 54.5696 193.724 55.8887 190.825 56.8659C187.927 57.843 184.686 58.3316 181.103 58.3316C178.041 58.3316 175.175 57.9896 172.504 57.3056C169.866 56.6216 167.537 55.5956 165.518 54.2276C163.531 52.8271 161.967 51.0845 160.828 49C159.688 46.9154 159.118 44.4889 159.118 41.7204C159.118 38.9518 159.688 36.5253 160.828 34.4407C161.967 32.3562 163.531 30.6299 165.518 29.262C167.537 27.8614 169.882 26.8191 172.553 26.1351C175.224 25.4512 178.074 25.1092 181.103 25.1092C184.197 25.1092 187.031 25.4512 189.604 26.1351C192.21 26.8191 194.441 27.8777 196.297 29.3108C198.186 30.7114 199.636 32.5028 200.646 34.685C201.688 36.8347 202.209 39.3915 202.209 42.3555H175.582C175.582 42.3555 175.566 42.3555 175.533 42.3555C175.533 42.3555 175.533 42.3718 175.533 42.4043C175.533 42.8929 175.664 43.3489 175.924 43.7723C176.185 44.1958 176.543 44.5703 176.999 44.896C177.488 45.1892 178.074 45.4172 178.758 45.58C179.474 45.7429 180.289 45.8243 181.201 45.8243ZM181.103 37.4698C179.507 37.4698 178.188 37.763 177.146 38.3493C176.103 38.903 175.582 39.701 175.582 40.7432C175.582 40.7758 175.582 40.8084 175.582 40.8409C175.615 40.8409 175.631 40.8409 175.631 40.8409H186.526C186.559 40.8409 186.575 40.8409 186.575 40.8409C186.575 40.8084 186.575 40.7758 186.575 40.7432C186.575 40.2221 186.428 39.7661 186.135 39.3752C185.875 38.9518 185.5 38.6098 185.011 38.3493C184.523 38.0561 183.937 37.8444 183.253 37.7141C182.601 37.5513 181.885 37.4698 181.103 37.4698Z" fill="#002626"/>
<path d="M225.191 45.8243C226.917 45.8243 228.252 45.5149 229.197 44.896C230.141 44.2772 230.63 43.4303 230.662 42.3555L245.759 47.29C245.173 49.342 243.919 51.2148 241.997 52.9085C240.108 54.5696 237.714 55.8887 234.815 56.8659C231.916 57.843 228.676 58.3316 225.093 58.3316C222.031 58.3316 219.165 57.9896 216.494 57.3056C213.856 56.6216 211.527 55.5956 209.508 54.2276C207.521 52.8271 205.957 51.0845 204.817 49C203.677 46.9154 203.107 44.4889 203.107 41.7204C203.107 39.8638 203.368 38.1701 203.889 36.6393C204.41 35.1084 205.143 33.7242 206.088 32.4865C207.065 31.2488 208.221 30.1739 209.557 29.262C210.892 28.35 212.374 27.5845 214.002 26.9657C215.631 26.3469 217.374 25.8909 219.23 25.5977C221.119 25.272 223.073 25.1092 225.093 25.1092C227.568 25.1092 229.881 25.3372 232.03 25.7931C234.18 26.2166 236.118 26.8843 237.844 27.7963C239.603 28.6757 241.101 29.7994 242.339 31.1674C243.577 32.5353 244.521 34.1476 245.173 36.0042C245.857 37.8607 246.199 39.9778 246.199 42.3555H219.572C219.54 42.3555 219.523 42.3555 219.523 42.3555C219.523 42.3555 219.523 42.3718 219.523 42.4043C219.523 42.8929 219.654 43.3489 219.914 43.7723C220.175 44.1958 220.533 44.5703 220.989 44.896C221.477 45.1892 222.064 45.4172 222.748 45.58C223.464 45.7429 224.279 45.8243 225.191 45.8243ZM225.093 37.4698C224.018 37.4698 223.057 37.6001 222.21 37.8607C221.396 38.1213 220.745 38.4958 220.256 38.9844C219.8 39.4404 219.572 40.0267 219.572 40.7432C219.572 40.7758 219.572 40.8084 219.572 40.8409C219.605 40.8409 219.621 40.8409 219.621 40.8409H230.516C230.549 40.8409 230.565 40.8409 230.565 40.8409C230.565 40.8084 230.565 40.7921 230.565 40.7921C230.565 40.7595 230.565 40.7432 230.565 40.7432C230.565 40.2221 230.418 39.7661 230.125 39.3752C229.865 38.9518 229.49 38.6098 229.001 38.3493C228.513 38.0561 227.927 37.8444 227.243 37.7141C226.591 37.5513 225.875 37.4698 225.093 37.4698Z" fill="#002626"/>
<path d="M30.6718 53.5034C28.0987 53.5034 25.7211 53.3406 23.5388 53.0149C21.3565 52.6892 19.3371 52.2169 17.4806 51.598C15.6566 50.9792 14.0118 50.2301 12.5461 49.3506C11.113 48.4712 9.8427 47.4778 8.73529 46.3704C7.62787 45.263 6.6996 44.0578 5.95047 42.755C5.2339 41.4196 4.69648 40.0028 4.3382 38.5045C3.97992 37.0062 3.80078 35.4265 3.80078 33.7654C3.80078 31.062 4.24049 28.6355 5.11991 26.4858C5.99932 24.3361 7.23702 22.4796 8.833 20.9162C10.4615 19.3528 12.3832 18.0499 14.5981 17.0076C16.8455 15.9654 19.3209 15.2 22.0242 14.7114C24.7276 14.1903 27.6102 13.9297 30.6718 13.9297C36.0786 13.9297 40.6711 14.5811 44.4494 15.8839C48.2276 17.1868 51.2079 19.0596 53.3901 21.5024C55.6049 23.9453 56.9892 26.9092 57.5429 30.3943L36.7789 33.7654C36.7789 33.0163 36.6161 32.3812 36.2903 31.86C35.9646 31.3063 35.5249 30.8666 34.9712 30.5409C34.4175 30.2152 33.7661 29.9709 33.017 29.808C32.3004 29.6452 31.5187 29.5638 30.6718 29.5638C29.4993 29.5638 28.457 29.7266 27.545 30.0523C26.633 30.3455 25.9002 30.8015 25.3465 31.4203C24.8254 32.0066 24.5648 32.7557 24.5648 33.6677C24.5648 34.2214 24.6625 34.7263 24.8579 35.1823C25.0533 35.6382 25.3302 36.0454 25.6885 36.4037C26.0468 36.7294 26.4702 37.0062 26.9588 37.2342C27.4799 37.4297 28.0499 37.5925 28.6687 37.7228C29.2876 37.8205 29.9553 37.8694 30.6718 37.8694C32.3981 37.8694 33.8475 37.5274 35.0201 36.8434C36.1926 36.1268 36.7789 35.1008 36.7789 33.7654L57.5429 35.8662C57.1846 38.2765 56.3866 40.5402 55.1489 42.6573C53.9438 44.7744 52.2501 46.6472 50.0679 48.2758C47.9182 49.9043 45.2311 51.1746 42.0066 52.0866C38.8146 53.0312 35.0364 53.5034 30.6718 53.5034Z" fill="#D1603D"/>
<path d="M80.6066 53.5034C78.5872 53.5034 76.6329 53.3569 74.7438 53.0637C72.8547 52.7706 71.0959 52.3309 69.4673 51.7446C67.8388 51.1258 66.3568 50.3603 65.0214 49.4483C63.686 48.5364 62.546 47.4778 61.6014 46.2727C60.6569 45.035 59.924 43.6507 59.4029 42.1199C58.8818 40.5565 58.6212 38.8302 58.6212 36.9411C58.6212 34.7263 58.9795 32.7394 59.696 30.9806C60.4452 29.1892 61.4874 27.6258 62.8228 26.2904C64.1908 24.955 65.7868 23.8476 67.6108 22.9681C69.4348 22.0561 71.4379 21.3884 73.6201 20.965C75.8349 20.509 78.1638 20.281 80.6066 20.281C83.6683 20.281 86.5182 20.6393 89.1565 21.3559C91.8273 22.0399 94.1561 23.0821 96.143 24.4827C98.1624 25.8507 99.7421 27.5769 100.882 29.6615C102.022 31.746 102.592 34.1726 102.592 36.9411C102.592 39.7096 102.022 42.1362 100.882 44.2207C99.7421 46.2727 98.1624 47.9989 96.143 49.3995C94.1561 50.7675 91.8273 51.7935 89.1565 52.4775C86.5182 53.1614 83.6683 53.5034 80.6066 53.5034ZM80.6555 40.5565C82.6749 40.5565 84.108 40.1656 84.9548 39.3839C85.8017 38.6022 86.2251 37.7554 86.2251 36.8434C86.2251 36.42 86.1274 35.9965 85.932 35.5731C85.7365 35.1497 85.4271 34.7588 85.0037 34.4006C84.5803 34.0423 84.0103 33.7654 83.2937 33.57C82.5771 33.342 81.6977 33.228 80.6555 33.228C79.6132 33.228 78.7175 33.342 77.9683 33.57C77.2518 33.7654 76.6655 34.0423 76.2095 34.4006C75.7861 34.7588 75.4767 35.1497 75.2812 35.5731C75.0858 35.9965 74.9881 36.4362 74.9881 36.8922C74.9881 37.3482 75.0858 37.8042 75.2812 38.2602C75.4767 38.6836 75.8024 39.0745 76.2584 39.4328C76.7144 39.7585 77.3006 40.0353 78.0172 40.2633C78.7338 40.4588 79.6132 40.5565 80.6555 40.5565Z" fill="#D1603D"/>
<path d="M125.404 13.9297C126.837 13.9297 128.303 14.06 129.801 14.3205C131.332 14.5485 132.749 14.858 134.052 15.2488C135.355 15.6397 136.381 16.0631 137.13 16.5191L132.733 30.5409C132.733 29.3032 132.244 28.3912 131.267 27.8049C130.29 27.1861 129.231 26.8767 128.091 26.8767C127.57 26.8767 127.082 26.9255 126.626 27.0232C126.17 27.1209 125.762 27.2675 125.404 27.4629C125.046 27.6258 124.736 27.8538 124.476 28.1469C124.248 28.4401 124.069 28.7821 123.938 29.1729C123.808 29.5638 123.743 30.0035 123.743 30.492C123.743 30.492 123.743 30.5083 123.743 30.5409C123.776 30.5409 123.792 30.5409 123.792 30.5409H132.733L129.215 41.8756H123.792C123.759 41.8756 123.743 41.8756 123.743 41.8756C123.743 41.8756 123.743 41.8919 123.743 41.9244C123.743 43.2273 123.743 44.3998 123.743 45.4421C123.743 46.4518 123.743 47.4778 123.743 48.5201C123.743 49.5623 123.743 50.7349 123.743 52.0377H106.692C106.692 50.7349 106.692 49.5623 106.692 48.5201C106.692 47.4778 106.692 46.4518 106.692 45.4421C106.692 44.3998 106.692 43.2273 106.692 41.9244C106.692 41.8919 106.692 41.8756 106.692 41.8756C106.692 41.8756 106.676 41.8756 106.643 41.8756H102.93C103.354 40.6053 103.777 39.3513 104.2 38.1136C104.624 36.8434 105.031 35.5731 105.422 34.3028C105.845 33.0326 106.269 31.7786 106.692 30.5409V30.0523C106.692 26.8278 107.458 24.0104 108.988 21.6002C110.519 19.1573 112.685 17.2682 115.486 15.9328C118.287 14.5974 121.593 13.9297 125.404 13.9297Z" fill="#D1603D"/>
<path d="M154.699 13.9297C156.132 13.9297 157.598 14.06 159.096 14.3205C160.627 14.5485 162.044 14.858 163.347 15.2488C164.649 15.6397 165.675 16.0631 166.425 16.5191L162.027 30.5409C162.027 29.3032 161.539 28.3912 160.562 27.8049C159.585 27.1861 158.526 26.8767 157.386 26.8767C156.865 26.8767 156.376 26.9255 155.92 27.0232C155.464 27.1209 155.057 27.2675 154.699 27.4629C154.341 27.6258 154.031 27.8538 153.771 28.1469C153.543 28.4401 153.364 28.7821 153.233 29.1729C153.103 29.5638 153.038 30.0035 153.038 30.492C153.038 30.492 153.038 30.5083 153.038 30.5409C153.07 30.5409 153.087 30.5409 153.087 30.5409H162.027L158.51 41.8756H153.087C153.054 41.8756 153.038 41.8756 153.038 41.8756C153.038 41.8756 153.038 41.8919 153.038 41.9244C153.038 43.2273 153.038 44.3998 153.038 45.4421C153.038 46.4518 153.038 47.4778 153.038 48.5201C153.038 49.5623 153.038 50.7349 153.038 52.0377H135.987C135.987 50.7349 135.987 49.5623 135.987 48.5201C135.987 47.4778 135.987 46.4518 135.987 45.4421C135.987 44.3998 135.987 43.2273 135.987 41.9244C135.987 41.8919 135.987 41.8756 135.987 41.8756C135.987 41.8756 135.971 41.8756 135.938 41.8756H132.225C132.648 40.6053 133.072 39.3513 133.495 38.1136C133.919 36.8434 134.326 35.5731 134.717 34.3028C135.14 33.0326 135.564 31.7786 135.987 30.5409V30.0523C135.987 26.8278 136.752 24.0104 138.283 21.6002C139.814 19.1573 141.98 17.2682 144.781 15.9328C147.582 14.5974 150.888 13.9297 154.699 13.9297Z" fill="#D1603D"/>
<path d="M185.001 40.9962C186.728 40.9962 188.063 40.6868 189.008 40.0679C189.952 39.4491 190.441 38.6022 190.473 37.5274L205.57 42.4619C204.984 44.5138 203.73 46.3867 201.808 48.0804C199.919 49.7415 197.525 51.0606 194.626 52.0377C191.727 53.0149 188.487 53.5034 184.904 53.5034C181.842 53.5034 178.976 53.1614 176.305 52.4775C173.667 51.7935 171.338 50.7675 169.319 49.3995C167.332 47.9989 165.768 46.2564 164.628 44.1718C163.488 42.0873 162.918 39.6608 162.918 36.8922C162.918 34.1237 163.488 31.6972 164.628 29.6126C165.768 27.5281 167.332 25.8018 169.319 24.4338C171.338 23.0333 173.683 21.991 176.354 21.307C179.025 20.623 181.875 20.281 184.904 20.281C187.998 20.281 190.832 20.623 193.405 21.307C196.01 21.991 198.242 23.0496 200.098 24.4827C201.987 25.8832 203.437 27.6746 204.446 29.8569C205.489 32.0066 206.01 34.5634 206.01 37.5274H179.383C179.383 37.5274 179.367 37.5274 179.334 37.5274C179.334 37.5274 179.334 37.5437 179.334 37.5762C179.334 38.0648 179.464 38.5208 179.725 38.9442C179.986 39.3676 180.344 39.7422 180.8 40.0679C181.288 40.361 181.875 40.589 182.559 40.7519C183.275 40.9147 184.089 40.9962 185.001 40.9962ZM184.904 32.6417C183.308 32.6417 181.989 32.9349 180.946 33.5211C179.904 34.0748 179.383 34.8728 179.383 35.9151C179.383 35.9477 179.383 35.9802 179.383 36.0128C179.416 36.0128 179.432 36.0128 179.432 36.0128H190.327C190.359 36.0128 190.376 36.0128 190.376 36.0128C190.376 35.9802 190.376 35.9477 190.376 35.9151C190.376 35.394 190.229 34.938 189.936 34.5471C189.675 34.1237 189.301 33.7817 188.812 33.5211C188.324 33.228 187.737 33.0163 187.053 32.886C186.402 32.7231 185.685 32.6417 184.904 32.6417Z" fill="#D1603D"/>
<path d="M228.991 40.9962C230.718 40.9962 232.053 40.6868 232.998 40.0679C233.942 39.4491 234.431 38.6022 234.463 37.5274L249.56 42.4619C248.974 44.5138 247.72 46.3867 245.798 48.0804C243.909 49.7415 241.515 51.0606 238.616 52.0377C235.717 53.0149 232.476 53.5034 228.894 53.5034C225.832 53.5034 222.966 53.1614 220.295 52.4775C217.657 51.7935 215.328 50.7675 213.308 49.3995C211.322 47.9989 209.758 46.2564 208.618 44.1718C207.478 42.0873 206.908 39.6608 206.908 36.8922C206.908 35.0357 207.169 33.342 207.69 31.8112C208.211 30.2803 208.944 28.8961 209.888 27.6584C210.866 26.4207 212.022 25.3458 213.357 24.4338C214.693 23.5218 216.175 22.7564 217.803 22.1376C219.432 21.5187 221.174 21.0627 223.031 20.7696C224.92 20.4439 226.874 20.281 228.894 20.281C231.369 20.281 233.682 20.509 235.831 20.965C237.981 21.3884 239.919 22.0561 241.645 22.9681C243.404 23.8476 244.902 24.9713 246.14 26.3392C247.378 27.7072 248.322 29.3195 248.974 31.176C249.658 33.0326 250 35.1497 250 37.5274H223.373C223.34 37.5274 223.324 37.5274 223.324 37.5274C223.324 37.5274 223.324 37.5437 223.324 37.5762C223.324 38.0648 223.454 38.5208 223.715 38.9442C223.975 39.3676 224.334 39.7422 224.79 40.0679C225.278 40.361 225.865 40.589 226.549 40.7519C227.265 40.9147 228.079 40.9962 228.991 40.9962ZM228.894 32.6417C227.819 32.6417 226.858 32.772 226.011 33.0326C225.197 33.2931 224.545 33.6677 224.057 34.1563C223.601 34.6123 223.373 35.1985 223.373 35.9151C223.373 35.9477 223.373 35.9802 223.373 36.0128C223.405 36.0128 223.422 36.0128 223.422 36.0128H234.317C234.349 36.0128 234.366 36.0128 234.366 36.0128C234.366 35.9802 234.366 35.964 234.366 35.964C234.366 35.9314 234.366 35.9151 234.366 35.9151C234.366 35.394 234.219 34.938 233.926 34.5471C233.665 34.1237 233.291 33.7817 232.802 33.5211C232.314 33.228 231.727 33.0163 231.043 32.886C230.392 32.7231 229.675 32.6417 228.894 32.6417Z" fill="#D1603D"/>
<ellipse cx="2.46392" cy="2.37479" rx="2.46392" ry="2.37479" transform="matrix(1 0 0 -1 10.8594 20.3066)" fill="#002626"/>
<ellipse cx="2.46392" cy="2.37479" rx="2.46392" ry="2.37479" transform="matrix(1 0 0 -1 44.7109 20.3066)" fill="#002626"/>
<ellipse cx="3.69587" cy="3.56219" rx="3.69587" ry="3.56219" transform="matrix(1 0 0 -1 16.7891 20.3066)" fill="#002626"/>
<ellipse cx="3.69587" cy="3.56219" rx="3.69587" ry="3.56219" transform="matrix(1 0 0 -1 36.3184 20.3066)" fill="#002626"/>
<path d="M35.2563 14.0808C35.2563 11.2982 31.6479 10.9025 30.218 9.04249C28.8047 10.9025 25.1797 11.2982 25.1797 14.0808C25.1797 16.8634 27.4354 19.1191 30.218 19.1191C33.0006 19.1191 35.2563 16.8634 35.2563 14.0808Z" fill="#002626"/>
<ellipse cx="1.2321" cy="1.1863" rx="1.2321" ry="1.1863" transform="matrix(1 0 0 -1 12.0391 19.1152)" fill="#B6C649"/>
<ellipse cx="1.2321" cy="1.1863" rx="1.2321" ry="1.1863" transform="matrix(1 0 0 -1 46.0117 19.1152)" fill="#B6C649"/>
<ellipse cx="1.84815" cy="1.78021" rx="1.84815" ry="1.78021" transform="matrix(1 0 0 -1 18.5879 18.5234)" fill="#B6C649"/>
<ellipse cx="1.84739" cy="1.78067" rx="1.84739" ry="1.78067" transform="matrix(1 0 0 -1 38.2324 18.5234)" fill="#B6C649"/>
<path d="M32.7688 14.223C32.7688 12.8317 30.9646 12.6339 30.2496 11.7039C29.543 12.6339 27.7305 12.8317 27.7305 14.223C27.7305 15.6143 28.8583 16.7422 30.2496 16.7422C31.6409 16.7422 32.7688 15.6143 32.7688 14.223Z" fill="#B6C649"/>
</svg>
